<?xml version="1.0" encoding="UTF-8" standalone="no"?>
<!DOCTYPE svg PUBLIC "-//W3C//DTD SVG 1.1//EN" "http://www.w3.org/Graphics/SVG/1.1/DTD/svg11.dtd">
<svg width="100%" height="100%" viewBox="0 0 300 300" version="1.1" xmlns="http://www.w3.org/2000/svg" xmlns:xlink="http://www.w3.org/1999/xlink" xml:space="preserve" xmlns:serif="http://www.serif.com/" style="fill-rule:evenodd;clip-rule:evenodd;stroke-linejoin:round;stroke-miterlimit:2;">
    <g transform="matrix(1,0,0,1,11.5923,-17.2933)">
        <path d="M265.555,55.51C265.555,51.197 262.053,47.695 257.74,47.695L63.09,47.695C58.777,47.695 55.275,51.197 55.275,55.51L55.275,71.14C55.275,75.453 58.777,78.954 63.09,78.954L257.74,78.954C262.053,78.954 265.555,75.453 265.555,71.14L265.555,55.51Z" style="fill:rgb(130,130,130);"/>
    </g>
    <g transform="matrix(1,0,0,1,10.5457,47.8666)">
        <path d="M265.555,55.51C265.555,51.197 262.053,47.695 257.74,47.695L63.09,47.695C58.777,47.695 55.275,51.197 55.275,55.51L55.275,71.14C55.275,75.453 58.777,78.954 63.09,78.954L257.74,78.954C262.053,78.954 265.555,75.453 265.555,71.14L265.555,55.51Z" style="fill:rgb(130,130,130);"/>
    </g>
    <g transform="matrix(1,0,0,1,11.4054,113.048)">
        <path d="M265.555,55.51C265.555,51.197 262.053,47.695 257.74,47.695L63.09,47.695C58.777,47.695 55.275,51.197 55.275,55.51L55.275,71.14C55.275,75.453 58.777,78.954 63.09,78.954L257.74,78.954C262.053,78.954 265.555,75.453 265.555,71.14L265.555,55.51Z" style="fill:rgb(130,130,130);"/>
    </g>
    <g transform="matrix(1,0,0,1,11.8032,178.588)">
        <path d="M265.555,55.51C265.555,51.197 262.053,47.695 257.74,47.695L63.09,47.695C58.777,47.695 55.275,51.197 55.275,55.51L55.275,71.14C55.275,75.453 58.777,78.954 63.09,78.954L257.74,78.954C262.053,78.954 265.555,75.453 265.555,71.14L265.555,55.51Z" style="fill:rgb(130,130,130);"/>
    </g>
    <g transform="matrix(1,0,0,1,3.59849,-0.25875)">
        <ellipse cx="31.259" cy="45.954" rx="10.844" ry="10.361" style="fill:rgb(130,130,130);"/>
    </g>
    <g transform="matrix(1,0,0,1,3.09998,64.9553)">
        <ellipse cx="31.259" cy="45.954" rx="10.844" ry="10.361" style="fill:rgb(130,130,130);"/>
    </g>
    <g transform="matrix(1,0,0,1,5.12823,130.996)">
        <ellipse cx="31.259" cy="45.954" rx="10.844" ry="10.361" style="fill:rgb(130,130,130);"/>
    </g>
    <g transform="matrix(1,0,0,1,5.94844,199.07)">
        <ellipse cx="31.259" cy="45.954" rx="10.844" ry="10.361" style="fill:rgb(130,130,130);"/>
    </g>
</svg>
