<svg width="100%" height="100%" viewBox="0 0 300 300" version="1.1" xmlns="http://www.w3.org/2000/svg" xmlns:xlink="http://www.w3.org/1999/xlink" xml:space="preserve" xmlns:serif="http://www.serif.com/" style="fill-rule:evenodd;clip-rule:evenodd;stroke-linejoin:round;stroke-miterlimit:2;">
    <g transform="matrix(0.824113,0,0,1.68823,-259.387,-564.153)">
        <path d="M425.142,333.622C429.243,333.622 432.588,332.019 432.665,330.017L433.493,308.284C433.495,308.224 433.495,308.163 433.491,308.102L432.719,295.956C432.719,295.956 432.666,292.762 432.666,292.762C432.632,290.745 429.273,289.119 425.142,289.119L216.881,289.119C216.881,289.119 216.881,274.213 216.881,274.213C216.881,272.644 214.84,271.249 211.801,270.739C208.761,270.23 205.395,270.719 203.42,271.957L144.155,309.114C142.038,310.441 142.038,312.3 144.155,313.627L203.42,350.784C205.395,352.021 208.761,352.51 211.801,352.001C214.84,351.492 216.881,350.096 216.881,348.527L216.881,333.622L425.142,333.622Z" style="fill:rgb(130,130,130);"/>
    </g>
    <g transform="matrix(0.824113,0,0,1.68823,-63.8794,-383.886)">
        <path d="M216.753,333.622L425.142,333.622L432.665,330.017L433.493,308.284C433.495,308.224 433.495,308.163 433.491,308.102L432.719,295.956C432.719,295.956 432.666,292.762 432.666,292.762C432.632,290.745 429.273,289.119 425.142,289.119L216.812,289.119C216.812,289.119 216.047,248.642 216.047,248.642C216.018,247.125 214.083,245.773 211.176,245.239C208.268,244.704 204.987,245.097 202.916,246.227L89.689,308.018C87.236,309.356 87.127,311.365 89.43,312.765L201.777,381.094C203.761,382.301 207.081,382.771 210.08,382.27C213.079,381.769 215.113,380.405 215.167,378.858L216.753,333.622Z" style="fill:rgb(130,130,130);"/>
    </g>
</svg>
