<?xml version="1.0" encoding="UTF-8" standalone="no"?>
<!DOCTYPE svg PUBLIC "-//W3C//DTD SVG 1.1//EN" "http://www.w3.org/Graphics/SVG/1.1/DTD/svg11.dtd">
<svg width="100%" height="100%" viewBox="0 0 300 300" version="1.1" xmlns="http://www.w3.org/2000/svg" xmlns:xlink="http://www.w3.org/1999/xlink" xml:space="preserve" xmlns:serif="http://www.serif.com/" style="fill-rule:evenodd;clip-rule:evenodd;stroke-linecap:round;stroke-linejoin:round;stroke-miterlimit:1.5;">
    <g transform="matrix(1,0,0,1,3.12667,-0.485319)">
        <path d="M20.09,56.224C18.285,54.701 17.184,52.504 17.044,50.147C16.905,47.79 17.738,45.479 19.35,43.753C23.955,38.825 30.365,31.965 35.849,26.096C38.729,23.014 42.755,21.26 46.974,21.25C51.192,21.24 55.226,22.975 58.121,26.044C80.462,49.731 129.89,102.137 145.806,119.012C147.106,120.391 148.923,121.164 150.817,121.145C152.712,121.126 154.513,120.317 155.785,118.913C173.037,99.876 230.474,36.493 246.824,18.45C247.958,17.199 249.559,16.474 251.246,16.448C252.934,16.421 254.556,17.096 255.728,18.31C260.052,22.791 266.778,29.761 272.765,35.966C276.136,39.459 277.923,44.184 277.708,49.033C277.492,53.882 275.294,58.43 271.627,61.61C249.363,80.92 206.494,118.103 186.129,135.766C183.224,138.286 181.503,141.904 181.383,145.748C181.263,149.591 182.754,153.31 185.496,156.006C207.819,177.955 259.06,228.338 278.281,247.236C280.245,249.167 281.347,251.809 281.338,254.563C281.33,257.317 280.211,259.951 278.235,261.869C275.362,264.658 271.976,267.946 268.652,271.173C264.789,274.923 259.544,276.904 254.166,276.643C248.789,276.381 243.76,273.902 240.279,269.794C218.083,243.608 174.597,192.304 158.067,172.802C156.41,170.846 153.985,169.705 151.421,169.674C148.858,169.642 146.406,170.724 144.701,172.639C124.279,195.576 63.721,263.589 47.249,282.089C46.178,283.292 44.65,283.988 43.039,284.008C41.429,284.027 39.884,283.368 38.784,282.191C34.795,277.923 28.68,271.382 23.348,265.678C20.468,262.597 18.936,258.495 19.093,254.28C19.249,250.066 21.08,246.088 24.18,243.229C44.785,224.224 87.574,184.759 111.321,162.856C115.573,158.934 117.936,153.375 117.808,147.593C117.68,141.81 115.074,136.361 110.654,132.631C84.866,110.875 37.75,71.123 20.09,56.224Z" style="fill:rgb(130,130,130);stroke:black;stroke-width:1px;"/>
    </g>
</svg>
